PathFileType	3	(X/Y/Z)	results
DataRate	CameraRate	NumFrames	NumMarkers	Units	OrigDataRate	OrigDataStartFrame	OrigNumFrames
30.0	30.0	4	85	mm	30.0	197	262
Frame#	Time	head			nose			neck			shoulder_r			elbow_r			wrist_r			shoulder_l			elbow_l			wrist_l			hip_r			knee_r			ankle_r			hip_l			knee_l			ankle_l			heel_r			heel_l			mtoe_r			ltoe_r			mtoe_l			ltoe_l			asis_l			asis_r			psi_r			psi_l			mhnd_r			lhnd_r			mhnd_l			lhnd_l			l_lat_knee			r_med_wrist			l_lat_ankle			r_med_ankle			r_lat_knee			xiphoid			l_med_ankle			r_med_knee			l_med_elbow			navel			r_lat_elbow			r_lat_wrist			l_med_wrist			l_lat_elbow			l_med_knee			r_med_elbow			r_lat_ankle			l_lat_wrist			chin			T10			r_eye			l_eye			l_ear			r_ear			spinal_cord_8			spinal_cord_12			spinal_cord_27			spinal_cord_33			up_arm_r_0			up_arm_r_5			up_arm_l_0			up_arm_l_5			front_torso_11			front_torso_7			front_torso_4			front_torso_1			front_torso_10			thigh_r_2			thigh_r_3			thigh_l_1			thigh_l_5			shank_l_0			shank_l_4			shank_r_1			shank_r_2			foot_r_1			foot_r_3			foot_r_5			foot_r_6			foot_r_7			foot_l_1			foot_l_7			foot_l_0			foot_l_4			foot_l_5			foot_l_6			
		X1	Y1	Z1	X2	Y2	Z2	X3	Y3	Z3	X4	Y4	Z4	X5	Y5	Z5	X6	Y6	Z6	X7	Y7	Z7	X8	Y8	Z8	X9	Y9	Z9	X10	Y10	Z10	X11	Y11	Z11	X12	Y12	Z12	X13	Y13	Z13	X14	Y14	Z14	X15	Y15	Z15	X16	Y16	Z16	X17	Y17	Z17	X18	Y18	Z18	X19	Y19	Z19	X20	Y20	Z20	X21	Y21	Z21	X22	Y22	Z22	X23	Y23	Z23	X24	Y24	Z24	X25	Y25	Z25	X26	Y26	Z26	X27	Y27	Z27	X28	Y28	Z28	X29	Y29	Z29	X30	Y30	Z30	X31	Y31	Z31	X32	Y32	Z32	X33	Y33	Z33	X34	Y34	Z34	X35	Y35	Z35	X36	Y36	Z36	X37	Y37	Z37	X38	Y38	Z38	X39	Y39	Z39	X40	Y40	Z40	X41	Y41	Z41	X42	Y42	Z42	X43	Y43	Z43	X44	Y44	Z44	X45	Y45	Z45	X46	Y46	Z46	X47	Y47	Z47	X48	Y48	Z48	X49	Y49	Z49	X50	Y50	Z50	X51	Y51	Z51	X52	Y52	Z52	X53	Y53	Z53	X54	Y54	Z54	X55	Y55	Z55	X56	Y56	Z56	X57	Y57	Z57	X58	Y58	Z58	X59	Y59	Z59	X60	Y60	Z60	X61	Y61	Z61	X62	Y62	Z62	X63	Y63	Z63	X64	Y64	Z64	X65	Y65	Z65	X66	Y66	Z66	X67	Y67	Z67	X68	Y68	Z68	X69	Y69	Z69	X70	Y70	Z70	X71	Y71	Z71	X72	Y72	Z72	X73	Y73	Z73	X74	Y74	Z74	X75	Y75	Z75	X76	Y76	Z76	X77	Y77	Z77	X78	Y78	Z78	X79	Y79	Z79	X80	Y80	Z80	X81	Y81	Z81	X82	Y82	Z82	X83	Y83	Z83	X84	Y84	Z84	X85	Y85	Z85	
197	6.566666666666666	70.17612665266884	1251.1448755393862	-296.1354210748274	54.45454971140955	1096.4113938874175	-429.3348607286392	66.07294762500824	981.5005409569661	-274.85352435997794	210.24962800283544	924.822182197994	-279.50517011239396	279.0749945550802	750.0932927389634	-457.12780771541446	129.05565905295597	911.7623752977383	-519.190087954607	-73.10332131745218	922.4201383775775	-291.4359125852345	-133.02556036732415	739.3780524131308	-452.14089307269086	17.25390420574047	907.0204329930116	-511.24011571867436	162.53537949973668	574.2957082059733	53.774145677558664	262.67005778635416	423.25864519205675	-303.6643126412618	251.65035340666032	105.56619848917464	-99.00251344926686	-37.42464924870922	571.2989297767884	49.698807812360236	-121.27491305524647	421.8388297769846	-306.31985438939614	-95.12818879753613	116.4020576359976	-89.60812408449206	243.73309717961493	55.53356775503819	-63.21715230804903	-94.53054104738783	61.22709139277598	-42.01463910665296	294.3132429988087	29.782202344640776	-285.42613890895905	344.8694648931186	26.896597356716338	-209.9918583152349	-101.62991726318604	48.741145730223074	-272.2784438171635	-176.62089225236403	31.53068970537129	-208.7271534521256	-80.41359382059544	579.0742324903639	-27.969882232018122	212.2682363195203	584.0912074213571	-17.473780476923523	110.51459287301255	701.9575462427526	54.15339271900864	10.918326306818111	695.689245357788	48.60836485150439	78.29430909950862	942.5003031507288	-562.3195780590681	81.29833579650153	983.7950233202091	-528.3377569708083	69.74645415192724	942.2128173225681	-553.9091335899361	67.48684439658966	979.511414229383	-515.7063044244937	-164.17577684520015	433.66899076523646	-285.0758185496449	133.90463613751842	894.9214566974387	-542.0767697229306	-143.55520356320463	109.20156952441745	-68.76723883416689	223.48367531094314	86.07158033160556	-113.76687363817742	302.7285098798689	423.3635217527789	-288.83448776675283	75.20990801964885	786.1275550813524	-249.88772613540104	-68.00616643414632	98.36925358175586	-99.12888774563159	220.5226178483191	424.19578510289864	-307.66350698621545	-115.03815988132942	723.2740570143831	-427.5068181053947	75.36647517887043	598.3717543100202	-129.88224538475615	304.2934785442144	779.0561755624346	-466.4623526262336	130.60930258943011	915.0144608786771	-487.6071255921386	8.400299194889243	891.6321911018592	-538.3236875098353	-157.29283904437568	767.9630674046433	-459.3019739163985	-73.38225266370499	437.34111441535896	-302.85063476963734	253.19488130668367	731.1463068645621	-439.85103522460497	295.657524576197	95.75757298973508	-79.0752970443786	5.67870217819813	916.609500267838	-483.93338971567266	60.21835270773436	1022.098762165603	-418.86183539653996	61.71372992674601	912.9791096084932	-97.43836209901269	84.85847433952065	1128.0921896596076	-430.6607461332782	19.32101782646335	1124.4995263799008	-420.12964288268637	-14.23694775927703	1107.105355478481	-316.4006803213586	148.8205515528307	1112.788568132984	-340.4146921138727	62.15274949499129	1059.2024771413364	-270.7822221656632	58.77202147474191	994.5366089339541	-158.01601515091957	74.96761902910139	780.2349483160873	-18.35518371302186	62.57694307114274	897.2790296200599	-102.22958406351995	224.88077614858665	864.0159420214985	-399.8174907940327	281.5072481409049	808.9949076777657	-362.5345682785127	-107.0431193435441	900.4858726521334	-332.76228451500003	-107.7578183127608	763.1311254349989	-379.5074391173735	116.78282141231813	646.977833168631	-112.35598484443082	78.94712732086774	696.8009065975154	-222.28727954881666	15.9173398198603	816.7257798150068	-284.8113321823123	8.756814413643363	666.6708783025038	-141.35418209108968	148.8416049461131	851.9461377335966	-309.68347373193285	197.95710253013317	493.5047775166057	-138.5314642030284	299.1349670442811	481.6007096887689	-145.2890756620137	-49.67747098724404	461.42117923200163	-198.25625935316268	-151.6383083254499	562.9257800703448	-34.05969072064761	-167.14091960541566	187.97414473052746	-137.2714289809935	-66.07334199198388	298.90227830042005	-234.92866452769607	311.4510048250843	296.3035525512985	-198.7155633128292	221.47054283944198	249.04652102583026	-211.80966393844793	312.48578523682653	22.766452238912326	-261.46583430255674	332.4609158638635	24.767755264209324	-239.20420491917145	263.22003297306327	47.818734499747876	-207.66479029174118	296.8940768315882	53.92840734254161	-185.96904634434085	323.8048138072235	39.75527912506174	-165.6632435420119	-148.39847775441197	33.20147653749599	-241.56508883647018	-161.54595655437464	68.00764945157015	-134.86279635770617	-162.8578367390059	32.3372023240476	-232.3866067525801	-130.5839518556781	34.2670437703391	-252.18386630583507	-134.53002244318438	52.84044401619869	-193.1122155245993	-102.41815803814029	69.23020707967697	-165.94863375889082	
198	6.6	71.58154188123156	1289.5434649806684	-286.3408652343346	53.62099035940174	1135.9060886218417	-420.52239982221096	65.94106035495645	1016.0292919562086	-269.19371913512174	215.39044903554185	962.7075324427437	-270.3605361442307	281.0943516466859	788.2111349075664	-449.38824827450844	129.03669789875087	948.4078268165907	-510.2972767223598	-76.3352761538748	962.4030528255295	-278.51972479688385	-137.75060558300137	779.8921456876169	-439.265165812322	14.990876617764853	942.6929840592228	-505.1933843293679	159.5851000023192	597.6137511643306	47.05284231053214	262.4253318107844	426.3873475219072	-298.74532621074104	252.80321379146665	105.95991211282823	-98.3206518136831	-40.40941879034857	600.6881420880219	45.522244360033994	-119.11571676160189	425.371201479364	-297.8665622303529	-97.06884375277842	114.77114814713745	-88.15058935844614	245.16852810250984	55.527757523467805	-63.12432263813188	-97.1593709298114	58.85228556646469	-41.58564362127504	292.6777435928738	31.77695221409263	-286.2321248065914	344.09816278960443	27.25506896595919	-211.46527360508293	-102.753839202021	48.97486718775162	-272.01753870618927	-178.1489523089983	31.015842333203064	-209.15528469528022	-84.08278852707782	612.8664421336052	-31.19317706708749	208.72332611680636	608.8128416279318	-24.400575667615282	111.42993144169431	726.6354969486537	53.24314247884114	11.63050643455102	723.5394104161153	48.777242750126845	77.43331438179628	978.5023690803644	-552.8777547609968	80.63884471356633	1020.040930742206	-519.2130146743141	67.37282164797031	975.7083814278609	-549.6988016647175	66.72574809047822	1013.9027243861682	-512.3287496778412	-162.55512642235325	436.5590509797615	-278.8601942431968	133.67088125994385	931.4504796705413	-533.1424522037664	-145.58847397437458	107.74881226674383	-67.46490425693175	224.68720864023726	86.5628359632275	-113.30837729247718	302.6435253456196	426.09489531220356	-284.50542323170095	73.85660176134346	820.0901428843274	-248.63714351010265	-70.19065050682202	96.59739979725224	-98.08581248519263	220.63086289428978	426.02986724957407	-304.17652591429044	-119.97463535785701	763.6212628812716	-414.58731848323396	73.48744054567752	629.7131296425753	-132.8354285146003	305.9924049643364	817.2715162167373	-459.2642507049187	131.02808746452112	951.8794711240082	-478.7622892663073	5.245294573989451	926.9019277990895	-531.7333606664541	-161.71736174202292	808.7140883002057	-446.488405982455	-71.68147268537201	440.1964618431069	-296.2280068790615	255.66493389049666	769.1658085716687	-431.5591804213046	296.8707897154918	96.04454247059341	-78.58063157006298	4.192260642181422	953.1577282536119	-477.89005449323884	59.605985404985546	1061.5133031662076	-410.76708206902754	62.29151827393565	943.6077705755989	-93.31838483100258	83.98036525042939	1167.6172609058376	-422.11592869176417	18.63848614537464	1163.8934466322055	-410.4736946452949	-13.095814469815448	1145.619543095737	-306.3228880058096	149.51496785894702	1151.6110849864745	-333.12875763476785	62.601087559726345	1093.646755129866	-263.37063284441297	59.52131747709066	1026.5119526314857	-152.04788320537912	75.13422151286886	809.0471661898837	-17.29644222191105	63.01072031666514	928.0126003734151	-98.46298114905272	227.6866243663999	901.9315887999312	-390.9491450375442	285.31513941586894	847.1440528445015	-354.877438410675	-110.407721762763	940.7886768368434	-319.90544843067676	-112.39533365526606	803.4261512896878	-366.5909154495584	115.36568063390494	677.6276273646787	-114.52017910278475	77.14457755868808	730.1474244613062	-223.0539809403095	14.54890278583578	851.8700654188889	-282.4624539421666	7.289302039697132	698.7126139248072	-142.32754125742443	147.5494755721645	886.7093559064194	-307.4630294028681	196.6307433422585	505.3810538975866	-139.71993514933237	297.8295770440628	492.8127875918788	-144.73662236172845	-49.15174820143031	472.3819372286874	-193.57199753939014	-153.82087940984263	584.4212189277968	-38.16517072288414	-168.1150269072495	188.3649459505949	-134.15689835163911	-65.56795414028913	300.1173833427294	-229.29959287106038	311.7943067943802	298.22143379642677	-195.55802469062718	221.96614773130784	250.8208072971212	-209.1686266521588	311.0371289098581	24.21259136283806	-262.58319981062874	331.30723185964473	25.658913442554855	-240.54636067666416	262.79070111074117	49.3014910719619	-207.88299098785635	296.80924065786263	54.668363551860914	-186.53093524775417	323.7585611849595	39.868731013409004	-166.7295222844677	-149.71414403236693	33.06979228917642	-241.78761799966685	-163.57207611726128	66.65892855231084	-134.7855958908738	-164.23254493457097	32.09588780401236	-232.7139136391347	-131.83136485641285	34.26261176818066	-252.27735546553464	-136.1704995115388	52.163588457823	-193.02594586376804	-104.24374020334454	68.25684809953933	-165.46972374664608	
199	6.633333333333333	73.14465975414086	1328.2743752716874	-276.9297610460971	52.658700401235855	1175.0700847345145	-411.244614581148	66.06720664622026	1050.0461551601713	-264.24954493252966	221.4335942988278	1000.3082621591117	-262.3427512461451	280.06937531481907	823.7167058779809	-441.7701313099023	130.47638095759257	986.1495005066251	-502.8597636279184	-76.54756262981675	1002.9743312070445	-268.4465300511696	-143.5564546852879	820.736912005144	-427.2561712842154	12.764015865296157	978.7252748422226	-496.4240182300305	155.421362455812	620.1779555735463	39.235065542811654	262.30620511945125	429.1288074433649	-293.1928057147132	253.4728320835551	105.73405727605356	-97.55491646466264	-44.339804429244765	630.4147440192507	38.699786375566134	-117.66549524472971	428.2029922531442	-288.76504417544754	-97.51994418470778	112.57424579650355	-86.49814574726366	246.0427135238096	54.798724765601115	-63.10207450428065	-97.91456239037025	55.68752378753932	-41.180515489748466	291.4482501401192	34.032338792908725	-286.9444568987064	343.38545692204207	27.55538914183677	-212.68030234231884	-103.47498095064195	50.33191337810085	-271.7626460291264	-178.9304850588243	31.334906756887687	-209.27910201403466	-87.71233954646135	648.4489923506225	-37.02682179838021	204.77757240211938	633.6508506986592	-31.673477456843678	111.90156417599508	750.2678345328706	52.891621131352125	12.046058298708376	750.96543878974	48.66710479782103	79.02132166680362	1016.7778207066045	-545.2386575442508	83.3643464304198	1058.5997255546506	-512.0557000882009	65.56136524369441	1009.8617188612486	-541.7845578345766	66.28076632623609	1048.4634931597059	-504.83685416031744	-161.62613761800077	438.4340494300942	-271.8951715154574	134.5512398736548	968.866584174687	-525.5671555589718	-146.0445452492316	105.43422407151986	-65.86447260184234	225.58178793495193	86.37920216000394	-113.01025416988469	302.6007852607787	428.4385783071104	-279.18218137101	72.93137656775123	853.7021667932877	-247.53726981303424	-70.80458219038502	94.43647465380161	-96.92607705301326	220.89245815844393	427.5084940719755	-300.0608196696898	-126.01982415442397	804.2322232144179	-402.562351590088	72.0802921257415	661.1198359484891	-135.44399549021813	305.44136104631883	852.1701724971583	-452.19207077625725	132.85768436103214	989.9144464074982	-471.3855208742391	2.349843025918452	962.9095109483951	-522.6939780260033	-166.85197366984937	850.084177733118	-434.55971596035715	-70.75787177074785	442.4938885103453	-289.19744262671594	254.53009194619324	805.3167737669148	-423.4277512435374	297.47505668878796	95.81285113586657	-77.67255994701205	2.5094817330618135	989.7672455601104	-469.1382671760696	58.71682351756861	1100.6405222047329	-401.8205876318065	62.97636548555467	974.2488451756836	-89.79168860870575	83.026466694341	1206.7486157101507	-413.26918151022807	17.8919768920299	1203.069600676572	-400.50467376836053	-12.051616058293913	1184.5164630782822	-295.8741130504941	150.0765006248248	1190.3899101614163	-325.4831682618989	63.22232383050209	1127.554237995259	-256.9052901214524	60.36940977752264	1058.2915532424547	-146.88773397838307	75.44519958286688	838.1659743083491	-16.464971309004383	63.573721303086344	958.7524781566328	-95.24138875891329	230.26186312588896	938.8290724424337	-382.87861623895105	287.2573474344921	882.8843762836516	-347.5856480727764	-111.42658002627486	981.8743320322833	-309.4237810586038	-117.13011993520831	844.2271148820049	-354.950257968097	114.34553279494955	708.424415699997	-116.4450320560505	75.82762551220023	763.2623807503288	-223.7200820740322	13.624543195266964	886.4784129933266	-280.3996413078075	6.241839074020559	730.6762112947943	-143.2177542743378	146.68741069531836	921.0182151175838	-305.4841516361602	194.81493023349856	516.7165333314148	-141.06247038328218	296.01588616967655	503.4741611111657	-143.7714382139834	-49.37246513579301	483.23702005390754	-189.3755453308499	-156.99563955728294	605.2290025921568	-43.790800193934054	-168.105100734195	187.7731542845444	-130.57815845397235	-64.92248037204723	300.9598591361152	-223.3076489983263	311.83897771246683	299.77945444697184	-191.57260277413525	222.41205149959998	252.00793310461162	-206.46799319189347	309.8827633391926	25.821230094772954	-263.5712959051491	330.3443922358187	26.617911932209047	-241.67887161919774	262.433561462486	50.694477106046726	-208.08095121686574	296.692671552384	55.22644313108042	-186.92086385269857	323.58182019471957	39.722604630917	-167.58189716522404	-150.48236306264573	33.95574985371049	-241.85918404878993	-164.2839581892926	65.48051109381609	-134.2236393033015	-165.00544659379312	32.84076005230967	-232.80924437961158	-132.59400754560264	35.308923222812176	-252.3199134782938	-136.90369342456088	52.05860220167695	-192.7306740342093	-104.94403396768003	67.53037996922895	-164.8584548312303	
200	6.666666666666667	75.56521746995915	1366.0014396891315	-267.0918262790359	51.66592025423872	1213.5043356820772	-401.64726434010356	66.26564139441882	1084.1977900267852	-257.71095129643993	223.22830630439353	1043.6931230022174	-264.8843862840836	274.3505327794414	853.3817753461096	-432.171642807828	132.34897197257993	1022.4210802724824	-493.45532764161436	-78.14812477611666	1041.0821353431354	-260.72577971932986	-148.04316978480654	858.4625120176505	-417.84333628170424	10.899525777379043	1014.030533185047	-486.5194869724861	151.91383263683917	642.3413500430576	33.595460619457356	262.19821813154806	433.235809009471	-285.24230115746934	253.05255792184678	105.3576858923988	-97.22988160562527	-47.44045827988955	658.5201083366463	31.204513126429703	-116.96171435162076	432.4963717806981	-279.1223814327243	-96.35008649183627	111.7153839146054	-85.17917934076411	245.5277457411693	53.82751024640362	-63.92103783947345	-96.49229317290073	53.985625188985786	-41.10839155087641	291.502524895169	35.789911839347	-287.88371871117766	343.0093032153922	27.249213628840323	-213.52850881829798	-103.78780483064396	51.96330033014246	-271.69548020355626	-178.7785649929185	32.08546690575366	-208.92709435439875	-89.4100537261874	679.623375784735	-44.519560073515756	202.4384268843531	656.0166768887273	-36.446145911506996	112.09475912987159	773.3072803723859	49.91163169390682	12.356863394464638	777.0720080389093	44.65480529099805	81.27686373109576	1054.7208005878324	-535.049264721231	89.22231529935037	1097.213469466201	-503.4219798912576	64.43870711898619	1044.260347945751	-531.6230473813299	65.41689943319774	1083.0019915172952	-494.82799993090157	-161.2986250393991	441.59303310805507	-263.85626164727415	134.60013253874482	1004.2371990590652	-515.708598424911	-144.80019428526248	104.0896893270008	-64.54423027277606	225.67262272044053	86.07860898403491	-113.66291436812065	302.89286689941883	433.9392045012805	-272.3280451309576	71.36172807013969	887.3524608066441	-247.546060691808	-69.69540870758517	93.82827536786931	-96.17965932507394	221.09065518253365	428.80153236903874	-292.2035525468991	-130.81632014524988	841.9056238050258	-392.9670825896473	70.14476410687291	691.2013039182002	-141.82556458632152	300.81078865551433	880.0453636567668	-444.45423871508575	136.0677107400922	1027.004894113482	-462.22020297236844	0.46037870524634483	998.2482732686426	-512.7996820153922	-170.83115244383404	888.1262750227643	-425.46265291858793	-70.58680612568521	446.33120061372165	-281.79527764888013	248.1426874284878	837.2739427008763	-412.6539079826124	296.7671351925365	95.43314502547324	-76.72443294420775	0.6003183646383636	1025.323629034272	-459.3536055954325	56.69177433346621	1138.9661133808838	-392.4784517146066	64.89321801914241	1002.7312556453883	-85.80501956913561	82.48491803754978	1244.732567729818	-403.8418769396386	17.412489772556995	1241.9878832086126	-390.53716507153405	-11.923185730226132	1223.5836116256955	-285.70829099597916	150.0196485533117	1227.1255773356481	-316.6710533644993	64.3179068062206	1161.4460724340365	-247.7890796564998	62.3295529003313	1088.6296894228744	-140.07119770846805	77.01748590280383	864.1928874996194	-17.168661004706195	65.25432414657092	987.4176386372845	-91.76792095880289	229.31032532728543	974.0453158017956	-381.0683604158206	284.11651640637297	918.3366289254174	-342.12338015184474	-113.33140366616172	1020.1755214638741	-301.5417239383775	-121.30706485505546	882.2069593009156	-345.7346140880961	113.15814460156575	737.4407561378821	-121.90581050379758	73.67387939837607	796.1536094677978	-226.75122816183517	11.929408075694662	921.7690655711715	-278.4461402460399	4.915971751471189	761.6139308397677	-146.35206379138725	144.9662475100888	955.8182808423295	-304.3267814525067	193.31080322012352	527.9481123597475	-139.5050839622895	294.8806494214231	517.9684932354996	-142.3870894971429	-49.83947975207096	494.800562583412	-185.3483027701277	-159.73191014796072	624.8648705888721	-48.722393742970645	-167.02947076525913	188.09822445653208	-127.01545537733772	-64.09482366936574	303.55013471044344	-217.19281707381796	311.1431190565458	302.0993777857736	-185.64787658271848	222.53489370708598	253.76992334083803	-203.36826801227758	309.6945734635498	26.894747473399903	-264.5709827593719	330.07526319796517	26.992975372959716	-242.58896653249442	262.4508393792952	51.71387268648722	-208.8814492483241	296.6944370298337	55.31854513913545	-187.5189354936146	323.2306188394556	39.04927775420027	-168.32172347696508	-150.57517307429583	35.16922362172654	-241.67896968758032	-163.55555595208696	65.13930432368848	-133.49852314104672	-165.03023323963055	33.9274344677569	-232.53710112369706	-132.76545226650893	36.668665851252946	-252.25331218332232	-136.6208543895767	52.556836729232224	-192.3976149071538	-104.44682700021524	67.6158954913238	-164.5459892106938	
